# Blender v2.83.2 OBJ File: 'Portal_Orange.blend'
# www.blender.org
mtllib Portal_Orange.mtl
o Cube_Cube.003
v 1.500000 -3.000000 -0.186574
v 1.500000 3.000000 -0.186574
v -1.500000 -3.000000 -0.186574
v -1.500000 3.000000 -0.186574
v 1.700000 -3.200000 -0.015012
v 1.700000 3.200000 -0.015012
v -1.700000 -3.200000 -0.015012
v -1.700000 3.200000 -0.015012
v 1.700000 -3.200000 -0.415012
v 1.700000 3.200000 -0.415012
v -1.700000 -3.200000 -0.415012
v -1.700000 3.200000 -0.415012
v 1.500000 -3.000000 -0.015012
v 1.500000 3.000000 -0.015012
v -1.500000 3.000000 -0.015012
v -1.500000 -3.000000 -0.015012
vt 0.111204 0.805996
vt 0.361204 0.555996
vt 0.111204 0.555996
vt 0.111204 0.850722
vt 0.361204 0.805996
vt 0.423704 0.805996
vt 0.468430 0.555996
vt 0.423704 0.555996
vt 0.111204 0.055996
vt 0.119017 0.070702
vt 0.111204 0.305996
vt 0.361204 0.305996
vt 0.111204 0.368496
vt 0.361204 0.555996
vt 0.111204 0.805996
vt 0.111204 0.555996
vt 0.361204 0.805996
vt 0.111204 0.868496
vt 0.048704 0.930996
vt 0.048704 0.555996
vt 0.611204 0.305996
vt 0.548704 0.868496
vt 0.548704 0.305996
vt 0.111204 0.493496
vt 0.361204 0.448770
vt 0.111204 0.448770
vt 0.353391 0.291291
vt 0.361204 0.055996
vt 0.066478 0.555996
vt 0.066478 0.805996
vt 0.361204 0.850722
vt 0.468430 0.805996
vt 0.353392 0.070702
vt 0.119017 0.291291
vt 0.361204 0.368496
vt 0.361204 0.868496
vt 0.111204 0.930996
vt 0.611204 0.868496
vt 0.361204 0.493496
vn -0.0000 0.0000 1.0000
vn -1.0000 0.0000 0.0000
vn 0.0000 -1.0000 0.0000
vn 0.0000 0.0000 -1.0000
vn 1.0000 0.0000 0.0000
vn 0.0000 1.0000 0.0000
g Cube_Cube.003_Material.001
usemtl Material.001
s off
f 1/1/1 4/2/1 3/3/1
f 13/4/2 2/5/2 1/1/2
f 2/6/3 15/7/3 4/8/3
f 5/9/1 13/10/1 7/11/1
f 8/12/2 11/13/2 7/11/2
f 12/14/4 9/15/4 11/16/4
f 10/17/5 5/18/5 9/15/5
f 11/16/3 5/19/3 7/20/3
f 8/21/6 10/22/6 12/23/6
f 3/24/5 15/25/5 16/26/5
f 15/27/1 6/28/1 8/12/1
f 1/1/6 16/29/6 13/30/6
f 1/1/1 2/5/1 4/2/1
f 13/4/2 14/31/2 2/5/2
f 2/6/3 14/32/3 15/7/3
f 5/9/1 6/28/1 14/33/1
f 13/10/1 16/34/1 7/11/1
f 5/9/1 14/33/1 13/10/1
f 8/12/2 12/35/2 11/13/2
f 12/14/4 10/17/4 9/15/4
f 10/17/5 6/36/5 5/18/5
f 11/16/3 9/37/3 5/19/3
f 8/21/6 6/38/6 10/22/6
f 3/24/5 4/39/5 15/25/5
f 8/12/1 7/11/1 16/34/1
f 15/27/1 14/33/1 6/28/1
f 8/12/1 16/34/1 15/27/1
f 1/1/6 3/3/6 16/29/6
